%TF.GenerationSoftware,KiCad,Pcbnew,9.0.6*%
%TF.CreationDate,2025-12-06T16:42:26-07:00*%
%TF.ProjectId,HyperionDevBoard,48797065-7269-46f6-9e44-6576426f6172,rev?*%
%TF.SameCoordinates,Original*%
%TF.FileFunction,Legend,Top*%
%TF.FilePolarity,Positive*%
%FSLAX46Y46*%
G04 Gerber Fmt 4.6, Leading zero omitted, Abs format (unit mm)*
G04 Created by KiCad (PCBNEW 9.0.6) date 2025-12-06 16:42:26*
%MOMM*%
%LPD*%
G01*
G04 APERTURE LIST*
%ADD10C,0.100000*%
%ADD11C,0.150000*%
%ADD12C,0.120000*%
%ADD13C,0.000000*%
G04 APERTURE END LIST*
D10*
X107256265Y-114624800D02*
X107399122Y-114672419D01*
X107399122Y-114672419D02*
X107637217Y-114672419D01*
X107637217Y-114672419D02*
X107732455Y-114624800D01*
X107732455Y-114624800D02*
X107780074Y-114577180D01*
X107780074Y-114577180D02*
X107827693Y-114481942D01*
X107827693Y-114481942D02*
X107827693Y-114386704D01*
X107827693Y-114386704D02*
X107780074Y-114291466D01*
X107780074Y-114291466D02*
X107732455Y-114243847D01*
X107732455Y-114243847D02*
X107637217Y-114196228D01*
X107637217Y-114196228D02*
X107446741Y-114148609D01*
X107446741Y-114148609D02*
X107351503Y-114100990D01*
X107351503Y-114100990D02*
X107303884Y-114053371D01*
X107303884Y-114053371D02*
X107256265Y-113958133D01*
X107256265Y-113958133D02*
X107256265Y-113862895D01*
X107256265Y-113862895D02*
X107303884Y-113767657D01*
X107303884Y-113767657D02*
X107351503Y-113720038D01*
X107351503Y-113720038D02*
X107446741Y-113672419D01*
X107446741Y-113672419D02*
X107684836Y-113672419D01*
X107684836Y-113672419D02*
X107827693Y-113720038D01*
X108161027Y-113672419D02*
X108399122Y-114672419D01*
X108399122Y-114672419D02*
X108589598Y-113958133D01*
X108589598Y-113958133D02*
X108780074Y-114672419D01*
X108780074Y-114672419D02*
X109018170Y-113672419D01*
X109922931Y-114672419D02*
X109351503Y-114672419D01*
X109637217Y-114672419D02*
X109637217Y-113672419D01*
X109637217Y-113672419D02*
X109541979Y-113815276D01*
X109541979Y-113815276D02*
X109446741Y-113910514D01*
X109446741Y-113910514D02*
X109351503Y-113958133D01*
X110294360Y-107296228D02*
X110294360Y-107772419D01*
X109961027Y-106772419D02*
X110294360Y-107296228D01*
X110294360Y-107296228D02*
X110627693Y-106772419D01*
X111484836Y-107772419D02*
X110913408Y-107772419D01*
X111199122Y-107772419D02*
X111199122Y-106772419D01*
X111199122Y-106772419D02*
X111103884Y-106915276D01*
X111103884Y-106915276D02*
X111008646Y-107010514D01*
X111008646Y-107010514D02*
X110913408Y-107058133D01*
X110003884Y-90972419D02*
X110003884Y-91781942D01*
X110003884Y-91781942D02*
X110051503Y-91877180D01*
X110051503Y-91877180D02*
X110099122Y-91924800D01*
X110099122Y-91924800D02*
X110194360Y-91972419D01*
X110194360Y-91972419D02*
X110384836Y-91972419D01*
X110384836Y-91972419D02*
X110480074Y-91924800D01*
X110480074Y-91924800D02*
X110527693Y-91877180D01*
X110527693Y-91877180D02*
X110575312Y-91781942D01*
X110575312Y-91781942D02*
X110575312Y-90972419D01*
X111575312Y-91972419D02*
X111003884Y-91972419D01*
X111289598Y-91972419D02*
X111289598Y-90972419D01*
X111289598Y-90972419D02*
X111194360Y-91115276D01*
X111194360Y-91115276D02*
X111099122Y-91210514D01*
X111099122Y-91210514D02*
X111003884Y-91258133D01*
X106303884Y-85772419D02*
X106303884Y-86581942D01*
X106303884Y-86581942D02*
X106351503Y-86677180D01*
X106351503Y-86677180D02*
X106399122Y-86724800D01*
X106399122Y-86724800D02*
X106494360Y-86772419D01*
X106494360Y-86772419D02*
X106684836Y-86772419D01*
X106684836Y-86772419D02*
X106780074Y-86724800D01*
X106780074Y-86724800D02*
X106827693Y-86677180D01*
X106827693Y-86677180D02*
X106875312Y-86581942D01*
X106875312Y-86581942D02*
X106875312Y-85772419D01*
X107256265Y-85772419D02*
X107875312Y-85772419D01*
X107875312Y-85772419D02*
X107541979Y-86153371D01*
X107541979Y-86153371D02*
X107684836Y-86153371D01*
X107684836Y-86153371D02*
X107780074Y-86200990D01*
X107780074Y-86200990D02*
X107827693Y-86248609D01*
X107827693Y-86248609D02*
X107875312Y-86343847D01*
X107875312Y-86343847D02*
X107875312Y-86581942D01*
X107875312Y-86581942D02*
X107827693Y-86677180D01*
X107827693Y-86677180D02*
X107780074Y-86724800D01*
X107780074Y-86724800D02*
X107684836Y-86772419D01*
X107684836Y-86772419D02*
X107399122Y-86772419D01*
X107399122Y-86772419D02*
X107303884Y-86724800D01*
X107303884Y-86724800D02*
X107256265Y-86677180D01*
D11*
X117666666Y-67454819D02*
X117666666Y-68169104D01*
X117666666Y-68169104D02*
X117619047Y-68311961D01*
X117619047Y-68311961D02*
X117523809Y-68407200D01*
X117523809Y-68407200D02*
X117380952Y-68454819D01*
X117380952Y-68454819D02*
X117285714Y-68454819D01*
X118047619Y-67454819D02*
X118666666Y-67454819D01*
X118666666Y-67454819D02*
X118333333Y-67835771D01*
X118333333Y-67835771D02*
X118476190Y-67835771D01*
X118476190Y-67835771D02*
X118571428Y-67883390D01*
X118571428Y-67883390D02*
X118619047Y-67931009D01*
X118619047Y-67931009D02*
X118666666Y-68026247D01*
X118666666Y-68026247D02*
X118666666Y-68264342D01*
X118666666Y-68264342D02*
X118619047Y-68359580D01*
X118619047Y-68359580D02*
X118571428Y-68407200D01*
X118571428Y-68407200D02*
X118476190Y-68454819D01*
X118476190Y-68454819D02*
X118190476Y-68454819D01*
X118190476Y-68454819D02*
X118095238Y-68407200D01*
X118095238Y-68407200D02*
X118047619Y-68359580D01*
X104266666Y-67454819D02*
X104266666Y-68169104D01*
X104266666Y-68169104D02*
X104219047Y-68311961D01*
X104219047Y-68311961D02*
X104123809Y-68407200D01*
X104123809Y-68407200D02*
X103980952Y-68454819D01*
X103980952Y-68454819D02*
X103885714Y-68454819D01*
X104695238Y-67550057D02*
X104742857Y-67502438D01*
X104742857Y-67502438D02*
X104838095Y-67454819D01*
X104838095Y-67454819D02*
X105076190Y-67454819D01*
X105076190Y-67454819D02*
X105171428Y-67502438D01*
X105171428Y-67502438D02*
X105219047Y-67550057D01*
X105219047Y-67550057D02*
X105266666Y-67645295D01*
X105266666Y-67645295D02*
X105266666Y-67740533D01*
X105266666Y-67740533D02*
X105219047Y-67883390D01*
X105219047Y-67883390D02*
X104647619Y-68454819D01*
X104647619Y-68454819D02*
X105266666Y-68454819D01*
X106074819Y-78859404D02*
X106884342Y-78859404D01*
X106884342Y-78859404D02*
X106979580Y-78811785D01*
X106979580Y-78811785D02*
X107027200Y-78764166D01*
X107027200Y-78764166D02*
X107074819Y-78668928D01*
X107074819Y-78668928D02*
X107074819Y-78478452D01*
X107074819Y-78478452D02*
X107027200Y-78383214D01*
X107027200Y-78383214D02*
X106979580Y-78335595D01*
X106979580Y-78335595D02*
X106884342Y-78287976D01*
X106884342Y-78287976D02*
X106074819Y-78287976D01*
X106408152Y-77383214D02*
X107074819Y-77383214D01*
X106027200Y-77621309D02*
X106741485Y-77859404D01*
X106741485Y-77859404D02*
X106741485Y-77240357D01*
X106366666Y-115554819D02*
X106366666Y-116269104D01*
X106366666Y-116269104D02*
X106319047Y-116411961D01*
X106319047Y-116411961D02*
X106223809Y-116507200D01*
X106223809Y-116507200D02*
X106080952Y-116554819D01*
X106080952Y-116554819D02*
X105985714Y-116554819D01*
X107271428Y-115888152D02*
X107271428Y-116554819D01*
X107033333Y-115507200D02*
X106795238Y-116221485D01*
X106795238Y-116221485D02*
X107414285Y-116221485D01*
X111246666Y-74299819D02*
X111246666Y-75014104D01*
X111246666Y-75014104D02*
X111199047Y-75156961D01*
X111199047Y-75156961D02*
X111103809Y-75252200D01*
X111103809Y-75252200D02*
X110960952Y-75299819D01*
X110960952Y-75299819D02*
X110865714Y-75299819D01*
X112246666Y-75299819D02*
X111675238Y-75299819D01*
X111960952Y-75299819D02*
X111960952Y-74299819D01*
X111960952Y-74299819D02*
X111865714Y-74442676D01*
X111865714Y-74442676D02*
X111770476Y-74537914D01*
X111770476Y-74537914D02*
X111675238Y-74585533D01*
D10*
%TO.C,D1*%
X117600000Y-109850000D02*
X116700000Y-108950000D01*
X117600000Y-108950000D01*
X117600000Y-109850000D01*
G36*
X117600000Y-109850000D02*
G01*
X116700000Y-108950000D01*
X117600000Y-108950000D01*
X117600000Y-109850000D01*
G37*
D12*
%TO.C,C10*%
X114640000Y-102392164D02*
X114640000Y-102607836D01*
X115360000Y-102392164D02*
X115360000Y-102607836D01*
%TO.C,C3*%
X116572164Y-92300000D02*
X116787836Y-92300000D01*
X116572164Y-93020000D02*
X116787836Y-93020000D01*
%TO.C,R3*%
X111880000Y-90436359D02*
X111880000Y-90743641D01*
X112640000Y-90436359D02*
X112640000Y-90743641D01*
%TO.C,C4*%
X114940000Y-91087836D02*
X114940000Y-90872164D01*
X115660000Y-91087836D02*
X115660000Y-90872164D01*
%TO.C,Y1*%
X113105000Y-103230000D02*
X108985000Y-103230000D01*
X113105000Y-106650000D02*
X113105000Y-103230000D01*
%TO.C,J3*%
X119110000Y-66690000D02*
X120490000Y-66690000D01*
X119110000Y-68070000D02*
X119110000Y-66690000D01*
X119110000Y-69340000D02*
X119110000Y-117710000D01*
X119110000Y-69340000D02*
X121870000Y-69340000D01*
X119110000Y-117710000D02*
X121870000Y-117710000D01*
X121870000Y-69340000D02*
X121870000Y-117710000D01*
%TO.C,R6*%
X108383641Y-106900000D02*
X108076359Y-106900000D01*
X108383641Y-107660000D02*
X108076359Y-107660000D01*
%TO.C,C11*%
X110840000Y-88007836D02*
X110840000Y-87792164D01*
X111560000Y-88007836D02*
X111560000Y-87792164D01*
%TO.C,SW1*%
X106030000Y-108630000D02*
X106330000Y-108630000D01*
X106030000Y-112770000D02*
X106030000Y-108630000D01*
X106330000Y-112770000D02*
X106030000Y-112770000D01*
X108870000Y-108630000D02*
X109170000Y-108630000D01*
X109170000Y-108630000D02*
X109170000Y-112770000D01*
X109170000Y-112770000D02*
X108870000Y-112770000D01*
%TO.C,C9*%
X113140000Y-86987836D02*
X113140000Y-86772164D01*
X113860000Y-86987836D02*
X113860000Y-86772164D01*
%TO.C,J2*%
X101330000Y-66690000D02*
X102710000Y-66690000D01*
X101330000Y-68070000D02*
X101330000Y-66690000D01*
X101330000Y-69340000D02*
X101330000Y-117710000D01*
X101330000Y-69340000D02*
X104090000Y-69340000D01*
X101330000Y-117710000D02*
X104090000Y-117710000D01*
X104090000Y-69340000D02*
X104090000Y-117710000D01*
%TO.C,C1*%
X115940001Y-91107836D02*
X115940000Y-90892164D01*
X116660000Y-91107836D02*
X116659999Y-90892164D01*
%TO.C,U4*%
X107460000Y-77337500D02*
X108460000Y-77337500D01*
X107460000Y-78857500D02*
X107460000Y-77337500D01*
X107510000Y-78857500D02*
X107460000Y-78857500D01*
X109410000Y-78857500D02*
X108630000Y-78857500D01*
X109580000Y-77337500D02*
X110580000Y-77337500D01*
X110580000Y-77337500D02*
X110580000Y-78857500D01*
X110580000Y-78857500D02*
X110530000Y-78857500D01*
X108970000Y-79637500D02*
X108640000Y-79397500D01*
X108970000Y-79157500D01*
X108970000Y-79637500D01*
G36*
X108970000Y-79637500D02*
G01*
X108640000Y-79397500D01*
X108970000Y-79157500D01*
X108970000Y-79637500D01*
G37*
%TO.C,C2*%
X112040000Y-88027836D02*
X112040000Y-87812164D01*
X112760000Y-88027836D02*
X112760000Y-87812164D01*
%TO.C,C7*%
X106237836Y-97350000D02*
X106022164Y-97350000D01*
X106237836Y-98070000D02*
X106022164Y-98070000D01*
%TO.C,C6*%
X106847836Y-92340000D02*
X106632164Y-92340000D01*
X106847836Y-93060000D02*
X106632164Y-93060000D01*
%TO.C,C16*%
X113310000Y-105397836D02*
X113310000Y-105182164D01*
X114030000Y-105397836D02*
X114030000Y-105182164D01*
%TO.C,C5*%
X117652164Y-96820000D02*
X117867836Y-96820000D01*
X117652164Y-97540000D02*
X117867836Y-97540000D01*
%TO.C,J4*%
X107680000Y-117470000D02*
X107680000Y-116090000D01*
X109060000Y-117470000D02*
X107680000Y-117470000D01*
X110330000Y-114710000D02*
X115520000Y-114710000D01*
X110330000Y-117470000D02*
X110330000Y-114710000D01*
X110330000Y-117470000D02*
X115520000Y-117470000D01*
X115520000Y-117470000D02*
X115520000Y-114710000D01*
%TO.C,C8*%
X113440000Y-102372164D02*
X113440000Y-102587836D01*
X114160000Y-102372164D02*
X114160000Y-102587836D01*
%TO.C,C12*%
X113940000Y-90917836D02*
X113940000Y-90702164D01*
X114660000Y-90917836D02*
X114660000Y-90702164D01*
%TO.C,R5*%
X111806359Y-102010000D02*
X112113641Y-102010000D01*
X111806359Y-102770000D02*
X112113641Y-102770000D01*
%TO.C,J1*%
X106880000Y-67200000D02*
X106880000Y-65300000D01*
X106880000Y-71100000D02*
X106880000Y-69100000D01*
X116280000Y-65300000D02*
X106880000Y-65300000D01*
X116280000Y-67200000D02*
X116280000Y-65300000D01*
X116280000Y-71100000D02*
X116280000Y-69100000D01*
%TO.C,C17*%
X109627836Y-86940000D02*
X109412164Y-86940000D01*
X109627836Y-87660000D02*
X109412164Y-87660000D01*
%TO.C,R1*%
X112680000Y-75416359D02*
X112680000Y-75723641D01*
X113440000Y-75416359D02*
X113440000Y-75723641D01*
%TO.C,R4*%
X112970000Y-90431359D02*
X112970000Y-90738641D01*
X113730000Y-90431359D02*
X113730000Y-90738641D01*
%TO.C,C14*%
X109140580Y-80390000D02*
X108859420Y-80390000D01*
X109140580Y-81410000D02*
X108859420Y-81410000D01*
%TO.C,C13*%
X108255580Y-74830000D02*
X107974420Y-74830000D01*
X108255580Y-75850000D02*
X107974420Y-75850000D01*
%TO.C,C15*%
X108040000Y-104512164D02*
X108040000Y-104727836D01*
X108760000Y-104512164D02*
X108760000Y-104727836D01*
%TO.C,U3*%
X106867102Y-88115000D02*
X109867102Y-88115000D01*
X106867102Y-90385000D02*
X109867102Y-90385000D01*
X106317102Y-88200000D02*
X106037102Y-88200000D01*
X106317102Y-87920000D01*
X106317102Y-88200000D01*
G36*
X106317102Y-88200000D02*
G01*
X106037102Y-88200000D01*
X106317102Y-87920000D01*
X106317102Y-88200000D01*
G37*
%TO.C,R2*%
X109810000Y-75406359D02*
X109810000Y-75713641D01*
X110570000Y-75406359D02*
X110570000Y-75713641D01*
D13*
%TO.C,G\u002A\u002A\u002A*%
G36*
X116097040Y-83668889D02*
G01*
X116117601Y-83688485D01*
X116149830Y-83765935D01*
X116133207Y-83841998D01*
X116068345Y-83915521D01*
X115961355Y-83982598D01*
X115883670Y-84015457D01*
X115834704Y-84014459D01*
X115803504Y-83975296D01*
X115783754Y-83912709D01*
X115762015Y-83813253D01*
X115759295Y-83749011D01*
X115778044Y-83708593D01*
X115820711Y-83680607D01*
X115834980Y-83674393D01*
X115935604Y-83646311D01*
X116027588Y-83644708D01*
X116097040Y-83668889D01*
G37*
G36*
X115868134Y-83210442D02*
G01*
X115921512Y-83224810D01*
X115944150Y-83262486D01*
X115949052Y-83295476D01*
X115945675Y-83352375D01*
X115916461Y-83402530D01*
X115867811Y-83450053D01*
X115807599Y-83496417D01*
X115757093Y-83524303D01*
X115741650Y-83527945D01*
X115709974Y-83507211D01*
X115672733Y-83454713D01*
X115656491Y-83422833D01*
X115627768Y-83354374D01*
X115610462Y-83303158D01*
X115608235Y-83290765D01*
X115629722Y-83264867D01*
X115684567Y-83239411D01*
X115756867Y-83219312D01*
X115830717Y-83209484D01*
X115868134Y-83210442D01*
G37*
G36*
X109371090Y-83006927D02*
G01*
X109383315Y-83071491D01*
X109384876Y-83170468D01*
X109375213Y-83296798D01*
X109374234Y-83305355D01*
X109363690Y-83396953D01*
X109355668Y-83468797D01*
X109351684Y-83507272D01*
X109351524Y-83509396D01*
X109332981Y-83524925D01*
X109331889Y-83524771D01*
X109299251Y-83519289D01*
X109233361Y-83508282D01*
X109164946Y-83496876D01*
X109085712Y-83482983D01*
X109029266Y-83471779D01*
X109009732Y-83466435D01*
X109018813Y-83444368D01*
X109050743Y-83392262D01*
X109098779Y-83319715D01*
X109156177Y-83236327D01*
X109216194Y-83151695D01*
X109272088Y-83075418D01*
X109317115Y-83017094D01*
X109344533Y-82986322D01*
X109348759Y-82983836D01*
X109371090Y-83006927D01*
G37*
G36*
X108028894Y-81541023D02*
G01*
X108248849Y-81550981D01*
X108452331Y-81568977D01*
X108554957Y-81582675D01*
X108993889Y-81667119D01*
X109456634Y-81788061D01*
X109936167Y-81943319D01*
X110425463Y-82130715D01*
X110698345Y-82247649D01*
X110988387Y-82375297D01*
X111241290Y-82483149D01*
X111464115Y-82573612D01*
X111663923Y-82649094D01*
X111847777Y-82712001D01*
X112022737Y-82764741D01*
X112195866Y-82809721D01*
X112374225Y-82849348D01*
X112564875Y-82886030D01*
X112577994Y-82888393D01*
X112681267Y-82906093D01*
X112775501Y-82919784D01*
X112869336Y-82929958D01*
X112971416Y-82937106D01*
X113090382Y-82941721D01*
X113234876Y-82944292D01*
X113413540Y-82945312D01*
X113579649Y-82945350D01*
X113793236Y-82944654D01*
X113966216Y-82942761D01*
X114107442Y-82939165D01*
X114225767Y-82933362D01*
X114330044Y-82924848D01*
X114429126Y-82913119D01*
X114531865Y-82897669D01*
X114591408Y-82887700D01*
X115222074Y-82755898D01*
X115833044Y-82580538D01*
X116421822Y-82362485D01*
X116985912Y-82102603D01*
X117223446Y-81976445D01*
X117321459Y-81923874D01*
X117402982Y-81883321D01*
X117458857Y-81859134D01*
X117479576Y-81854876D01*
X117472326Y-81879508D01*
X117445016Y-81941766D01*
X117400606Y-82035495D01*
X117342057Y-82154541D01*
X117272331Y-82292750D01*
X117218473Y-82397571D01*
X117142786Y-82545676D01*
X117076417Y-82679127D01*
X117022298Y-82791732D01*
X116983358Y-82877299D01*
X116962527Y-82929636D01*
X116960282Y-82943177D01*
X116988490Y-82947644D01*
X117059131Y-82951627D01*
X117165179Y-82954941D01*
X117299604Y-82957402D01*
X117455378Y-82958824D01*
X117565660Y-82959104D01*
X117730370Y-82959846D01*
X117877190Y-82961931D01*
X117999364Y-82965144D01*
X118090139Y-82969273D01*
X118142760Y-82974105D01*
X118153306Y-82977653D01*
X118133522Y-83004795D01*
X118079945Y-83058379D01*
X117997585Y-83134167D01*
X117891451Y-83227921D01*
X117766551Y-83335406D01*
X117627896Y-83452382D01*
X117480493Y-83574614D01*
X117329353Y-83697863D01*
X117179483Y-83817894D01*
X117035894Y-83930467D01*
X116940776Y-84003339D01*
X116434078Y-84370121D01*
X115941554Y-84692396D01*
X115463782Y-84969872D01*
X115001339Y-85202255D01*
X114554805Y-85389254D01*
X114124757Y-85530575D01*
X113752775Y-85618375D01*
X113587609Y-85640909D01*
X113381251Y-85654809D01*
X113141176Y-85660299D01*
X112874856Y-85657601D01*
X112589766Y-85646938D01*
X112293380Y-85628532D01*
X111993170Y-85602607D01*
X111696611Y-85569385D01*
X111576339Y-85553502D01*
X111426929Y-85532102D01*
X111284449Y-85509892D01*
X111144551Y-85485789D01*
X111002888Y-85458709D01*
X110855112Y-85427568D01*
X110696875Y-85391284D01*
X110523831Y-85348772D01*
X110331631Y-85298950D01*
X110115928Y-85240734D01*
X109872375Y-85173040D01*
X109596623Y-85094785D01*
X109284326Y-85004885D01*
X108931136Y-84902258D01*
X108744498Y-84847776D01*
X108520410Y-84783983D01*
X108344630Y-84736117D01*
X110752507Y-84736117D01*
X110760925Y-84776754D01*
X110791936Y-84799177D01*
X110836866Y-84808661D01*
X110906762Y-84793687D01*
X110984466Y-84738541D01*
X111064017Y-84650564D01*
X111139457Y-84537093D01*
X111204824Y-84405468D01*
X111239237Y-84313193D01*
X111274141Y-84277994D01*
X111315874Y-84269912D01*
X111362824Y-84272012D01*
X111378577Y-84276095D01*
X111383092Y-84301256D01*
X111395384Y-84365775D01*
X111413688Y-84460475D01*
X111436238Y-84576181D01*
X111441376Y-84602430D01*
X111470939Y-84747179D01*
X111496074Y-84850949D01*
X111520075Y-84921620D01*
X111546238Y-84967072D01*
X111577859Y-84995182D01*
X111612578Y-85011742D01*
X111659841Y-85022194D01*
X111703330Y-85007405D01*
X111755647Y-84967185D01*
X111787721Y-84908990D01*
X111796687Y-84814527D01*
X111783544Y-84690718D01*
X111749291Y-84544487D01*
X111694928Y-84382759D01*
X111685715Y-84360208D01*
X112673223Y-84360208D01*
X112690782Y-84540965D01*
X112731284Y-84709476D01*
X112793633Y-84854886D01*
X112876735Y-84966337D01*
X112881936Y-84971313D01*
X112989587Y-85040047D01*
X113117403Y-85069772D01*
X113253691Y-85059317D01*
X113364305Y-85019571D01*
X113423127Y-84974006D01*
X113459989Y-84915021D01*
X113473898Y-84854204D01*
X113463859Y-84803143D01*
X113428879Y-84773428D01*
X113385531Y-84772148D01*
X113313846Y-84785929D01*
X113233484Y-84801544D01*
X113233390Y-84801562D01*
X113139487Y-84797035D01*
X113053856Y-84744668D01*
X112975751Y-84643941D01*
X112955465Y-84607642D01*
X112922248Y-84514524D01*
X112902269Y-84396670D01*
X112895622Y-84268924D01*
X112902403Y-84146123D01*
X112922708Y-84043110D01*
X112951423Y-83981168D01*
X113023864Y-83920878D01*
X113114511Y-83903467D01*
X113214312Y-83930535D01*
X113220329Y-83933575D01*
X113284731Y-83958427D01*
X113319669Y-83946169D01*
X113331977Y-83893290D01*
X113332327Y-83876072D01*
X113309373Y-83787611D01*
X113247542Y-83709837D01*
X113242396Y-83706731D01*
X113619497Y-83706731D01*
X113620434Y-83808037D01*
X113632970Y-83946905D01*
X113650900Y-84088016D01*
X113670456Y-84233269D01*
X113689040Y-84376017D01*
X113704846Y-84502072D01*
X113716069Y-84597246D01*
X113718116Y-84616163D01*
X113730345Y-84710016D01*
X113745120Y-84791597D01*
X113756945Y-84836056D01*
X113771595Y-84867175D01*
X113794425Y-84883361D01*
X113837870Y-84887491D01*
X113914364Y-84882443D01*
X113945163Y-84879611D01*
X114057848Y-84864119D01*
X114187790Y-84839072D01*
X114296336Y-84812647D01*
X114410870Y-84778340D01*
X114484795Y-84748665D01*
X114526075Y-84718890D01*
X114542670Y-84684279D01*
X114544206Y-84665245D01*
X114532433Y-84626934D01*
X114493396Y-84606888D01*
X114421519Y-84604507D01*
X114311229Y-84619191D01*
X114240754Y-84632580D01*
X114115446Y-84654781D01*
X114029776Y-84659931D01*
X113976066Y-84645404D01*
X113946640Y-84608575D01*
X113933821Y-84546818D01*
X113932306Y-84527096D01*
X113911957Y-84264595D01*
X113885996Y-84041101D01*
X113854862Y-83858365D01*
X113818996Y-83718132D01*
X113778839Y-83622152D01*
X113734830Y-83572173D01*
X113690885Y-83568489D01*
X113654264Y-83592927D01*
X113630621Y-83637018D01*
X113619497Y-83706731D01*
X113242396Y-83706731D01*
X113157383Y-83655414D01*
X113144764Y-83650923D01*
X113044803Y-83642373D01*
X112942419Y-83675599D01*
X112848508Y-83744738D01*
X112773965Y-83843929D01*
X112769147Y-83853021D01*
X112711310Y-84005380D01*
X112679701Y-84178061D01*
X112673223Y-84360208D01*
X111685715Y-84360208D01*
X111658418Y-84293391D01*
X111593370Y-84143402D01*
X111704829Y-84027349D01*
X111830278Y-83887114D01*
X111914755Y-83770494D01*
X111957899Y-83678135D01*
X111959354Y-83610680D01*
X111947845Y-83590405D01*
X111907130Y-83569593D01*
X111846105Y-83583703D01*
X111762285Y-83634093D01*
X111653187Y-83722125D01*
X111571423Y-83796524D01*
X111370301Y-83985491D01*
X111387145Y-83861830D01*
X111408839Y-83687564D01*
X111419446Y-83553992D01*
X111418879Y-83518532D01*
X114405044Y-83518532D01*
X114406021Y-83590225D01*
X114407631Y-83599764D01*
X114426758Y-83687092D01*
X114456476Y-83800051D01*
X114493173Y-83927101D01*
X114533240Y-84056700D01*
X114573065Y-84177307D01*
X114609039Y-84277381D01*
X114637552Y-84345382D01*
X114645485Y-84360099D01*
X114732388Y-84458577D01*
X114844635Y-84524003D01*
X114970080Y-84552810D01*
X115096579Y-84541436D01*
X115168439Y-84513575D01*
X115221602Y-84461991D01*
X115269578Y-84370130D01*
X115307650Y-84247178D01*
X115309544Y-84238887D01*
X115317144Y-84156677D01*
X115313780Y-84039869D01*
X115300869Y-83901755D01*
X115279827Y-83755626D01*
X115252071Y-83614774D01*
X115236224Y-83550876D01*
X115208488Y-83481193D01*
X115166104Y-83408529D01*
X115118973Y-83346835D01*
X115076996Y-83310062D01*
X115061955Y-83305355D01*
X115033867Y-83323937D01*
X115001031Y-83364815D01*
X114980321Y-83403513D01*
X114974499Y-83444508D01*
X114983400Y-83504318D01*
X114998973Y-83568856D01*
X115029117Y-83705278D01*
X115053586Y-83851162D01*
X115070805Y-83992943D01*
X115079201Y-84117053D01*
X115077202Y-84209926D01*
X115075121Y-84225347D01*
X115043860Y-84310735D01*
X114989430Y-84356982D01*
X114918326Y-84360153D01*
X114878609Y-84344386D01*
X114848727Y-84322658D01*
X114821841Y-84287568D01*
X114795417Y-84232516D01*
X114766920Y-84150900D01*
X114733817Y-84036120D01*
X114693573Y-83881577D01*
X114679684Y-83826295D01*
X114642042Y-83682173D01*
X114610749Y-83579227D01*
X114582951Y-83510032D01*
X114555795Y-83467162D01*
X114534321Y-83447944D01*
X114493980Y-83431058D01*
X114456152Y-83448160D01*
X114432639Y-83469920D01*
X114405044Y-83518532D01*
X111418879Y-83518532D01*
X111417837Y-83453354D01*
X111402885Y-83377892D01*
X111373460Y-83319847D01*
X111330903Y-83274115D01*
X115431442Y-83274115D01*
X115440090Y-83325766D01*
X115458828Y-83402078D01*
X115488916Y-83509849D01*
X115531617Y-83655878D01*
X115549109Y-83715034D01*
X115593023Y-83859791D01*
X115633963Y-83988101D01*
X115669363Y-84092440D01*
X115696657Y-84165284D01*
X115713280Y-84199108D01*
X115714570Y-84200276D01*
X115768334Y-84208857D01*
X115855236Y-84192456D01*
X115966913Y-84153009D01*
X116020272Y-84129535D01*
X116156057Y-84048562D01*
X116248229Y-83952952D01*
X116294716Y-83845215D01*
X116300195Y-83790430D01*
X116280032Y-83677030D01*
X116225883Y-83574279D01*
X116147253Y-83498513D01*
X116122083Y-83484330D01*
X116082135Y-83462317D01*
X116069627Y-83437627D01*
X116080958Y-83393114D01*
X116095167Y-83356208D01*
X116121364Y-83241397D01*
X116109730Y-83140107D01*
X116065152Y-83060066D01*
X115992520Y-83009002D01*
X115896720Y-82994645D01*
X115868543Y-82997891D01*
X115779449Y-83022082D01*
X115675438Y-83063805D01*
X115573498Y-83114823D01*
X115490617Y-83166901D01*
X115453433Y-83199136D01*
X115439375Y-83217598D01*
X115431624Y-83240325D01*
X115431442Y-83274115D01*
X111330903Y-83274115D01*
X111328434Y-83271462D01*
X111297719Y-83246978D01*
X111229324Y-83196198D01*
X111176427Y-83249094D01*
X111150617Y-83283057D01*
X111131765Y-83331657D01*
X111117282Y-83405420D01*
X111104578Y-83514871D01*
X111100643Y-83557178D01*
X111078371Y-83764607D01*
X111050176Y-83937366D01*
X111012187Y-84090204D01*
X110960532Y-84237873D01*
X110891340Y-84395124D01*
X110868081Y-84443319D01*
X110805559Y-84575561D01*
X110767210Y-84671107D01*
X110752507Y-84736117D01*
X108344630Y-84736117D01*
X108279486Y-84718378D01*
X108031830Y-84653494D01*
X107787545Y-84591861D01*
X107556737Y-84536012D01*
X107349507Y-84488477D01*
X107175960Y-84451789D01*
X107124537Y-84441884D01*
X106951237Y-84415717D01*
X106747642Y-84394698D01*
X106528938Y-84379597D01*
X106310308Y-84371186D01*
X106106936Y-84370235D01*
X105934006Y-84377514D01*
X105904897Y-84379980D01*
X105717483Y-84397542D01*
X105690968Y-84525402D01*
X105649027Y-84766277D01*
X105614608Y-85044197D01*
X105588973Y-85347138D01*
X105574275Y-85636368D01*
X105558983Y-86075365D01*
X105377203Y-86075365D01*
X105280979Y-86073452D01*
X105224877Y-86066424D01*
X105199654Y-86052345D01*
X105195424Y-86037292D01*
X105198632Y-85980301D01*
X105207380Y-85885671D01*
X105220354Y-85764750D01*
X105236239Y-85628886D01*
X105253722Y-85489427D01*
X105271488Y-85357721D01*
X105284100Y-85271567D01*
X105366832Y-84808135D01*
X105472195Y-84357709D01*
X105603578Y-83908733D01*
X105708988Y-83607787D01*
X106965692Y-83607787D01*
X106974693Y-83668289D01*
X107001743Y-83708846D01*
X107028553Y-83727379D01*
X107103404Y-83741242D01*
X107185205Y-83709341D01*
X107270751Y-83634325D01*
X107356833Y-83518838D01*
X107422290Y-83402362D01*
X107519310Y-83209399D01*
X107732905Y-83293253D01*
X107826688Y-83330563D01*
X107900994Y-83361053D01*
X107945265Y-83380345D01*
X107952926Y-83384513D01*
X107951072Y-83410315D01*
X107940755Y-83473330D01*
X107923891Y-83562411D01*
X107913343Y-83614508D01*
X107892653Y-83721140D01*
X107876685Y-83815851D01*
X107867887Y-83883570D01*
X107866920Y-83900165D01*
X107883236Y-83974666D01*
X107928142Y-84014467D01*
X107993768Y-84018295D01*
X108013358Y-84009952D01*
X108495061Y-84009952D01*
X108499138Y-84068220D01*
X108518459Y-84108669D01*
X108545043Y-84138968D01*
X108573741Y-84143905D01*
X108623250Y-84124706D01*
X108640289Y-84116651D01*
X108711158Y-84065533D01*
X108783432Y-83984808D01*
X108807067Y-83950955D01*
X108887868Y-83826258D01*
X109038773Y-83841046D01*
X109121551Y-83851453D01*
X109183723Y-83863507D01*
X109208503Y-83872710D01*
X109211343Y-83903371D01*
X109199185Y-83965181D01*
X109181444Y-84024101D01*
X109143301Y-84139356D01*
X109121522Y-84218229D01*
X109115134Y-84270667D01*
X109123165Y-84306616D01*
X109144642Y-84336022D01*
X109150368Y-84341897D01*
X109209987Y-84376249D01*
X109275953Y-84364222D01*
X109350866Y-84305122D01*
X109371183Y-84283041D01*
X109421641Y-84201308D01*
X109466062Y-84086911D01*
X109829786Y-84086911D01*
X109848650Y-84257310D01*
X109894195Y-84403947D01*
X109965212Y-84522267D01*
X110060488Y-84607709D01*
X110178812Y-84655717D01*
X110260576Y-84664660D01*
X110343849Y-84653269D01*
X110414794Y-84628079D01*
X110474938Y-84577875D01*
X110505359Y-84513374D01*
X110500207Y-84450405D01*
X110487854Y-84430350D01*
X110443194Y-84404716D01*
X110377465Y-84393587D01*
X110375176Y-84393573D01*
X110281930Y-84371474D01*
X110224244Y-84334413D01*
X110188149Y-84298438D01*
X110166284Y-84257925D01*
X110154075Y-84198557D01*
X110146945Y-84106015D01*
X110146105Y-84089870D01*
X110152272Y-83926733D01*
X110183442Y-83756032D01*
X110235181Y-83591601D01*
X110303052Y-83447271D01*
X110382619Y-83336876D01*
X110390036Y-83329243D01*
X110460436Y-83288969D01*
X110541126Y-83285452D01*
X110612371Y-83318620D01*
X110624148Y-83330087D01*
X110686711Y-83372677D01*
X110750900Y-83375093D01*
X110802420Y-83338213D01*
X110813805Y-83318455D01*
X110824919Y-83240222D01*
X110801154Y-83150943D01*
X110748728Y-83067102D01*
X110702579Y-83023591D01*
X110620135Y-82987449D01*
X110512668Y-82973995D01*
X110399273Y-82983541D01*
X110299041Y-83016399D01*
X110297919Y-83016975D01*
X110195395Y-83092018D01*
X110095400Y-83205479D01*
X110006119Y-83346636D01*
X109945404Y-83478735D01*
X109876952Y-83693066D01*
X109838817Y-83897311D01*
X109829786Y-84086911D01*
X109466062Y-84086911D01*
X109469341Y-84078468D01*
X109512587Y-83922864D01*
X109549687Y-83742841D01*
X109578945Y-83546745D01*
X109598667Y-83342920D01*
X109607161Y-83139711D01*
X109607326Y-83119863D01*
X109603756Y-82950689D01*
X109589776Y-82821949D01*
X109563442Y-82725342D01*
X109522805Y-82652567D01*
X109488973Y-82615209D01*
X109418244Y-82576014D01*
X109341802Y-82585935D01*
X109259668Y-82644956D01*
X109171862Y-82753061D01*
X109078404Y-82910234D01*
X109055669Y-82954199D01*
X109011430Y-83039565D01*
X108949218Y-83156601D01*
X108875219Y-83293818D01*
X108795623Y-83439725D01*
X108733504Y-83552406D01*
X108661427Y-83683877D01*
X108597497Y-83803149D01*
X108545754Y-83902464D01*
X108510241Y-83974065D01*
X108495061Y-84009952D01*
X108013358Y-84009952D01*
X108072240Y-83984876D01*
X108126804Y-83942210D01*
X108161278Y-83906168D01*
X108191388Y-83862988D01*
X108220752Y-83804478D01*
X108252991Y-83722443D01*
X108291724Y-83608690D01*
X108337101Y-83466115D01*
X108385456Y-83307677D01*
X108434377Y-83140545D01*
X108479188Y-82981142D01*
X108515212Y-82845891D01*
X108525953Y-82802892D01*
X108590955Y-82535385D01*
X108541584Y-82469007D01*
X108491161Y-82420097D01*
X108438390Y-82394658D01*
X108437617Y-82394538D01*
X108378656Y-82398069D01*
X108322581Y-82430236D01*
X108264988Y-82495892D01*
X108201478Y-82599894D01*
X108138312Y-82724663D01*
X108086805Y-82826725D01*
X108039809Y-82909863D01*
X108002707Y-82965173D01*
X107981670Y-82983836D01*
X107942823Y-82974983D01*
X107874411Y-82951948D01*
X107803729Y-82924691D01*
X107658355Y-82865547D01*
X107657204Y-82634088D01*
X107649979Y-82479065D01*
X107628133Y-82363582D01*
X107588764Y-82279123D01*
X107528968Y-82217170D01*
X107510711Y-82204347D01*
X107437510Y-82182409D01*
X107364128Y-82200637D01*
X107308642Y-82253224D01*
X107299183Y-82272288D01*
X107285318Y-82317831D01*
X107264372Y-82400074D01*
X107239207Y-82507264D01*
X107213207Y-82625219D01*
X107179005Y-82772684D01*
X107135085Y-82943929D01*
X107087560Y-83115868D01*
X107049785Y-83242472D01*
X107002956Y-83401291D01*
X106975019Y-83520925D01*
X106965692Y-83607787D01*
X105708988Y-83607787D01*
X105764376Y-83449652D01*
X105957981Y-82968911D01*
X105964867Y-82952780D01*
X106028270Y-82808657D01*
X106102726Y-82646114D01*
X106183893Y-82474008D01*
X106267431Y-82301190D01*
X106348997Y-82136517D01*
X106424251Y-81988840D01*
X106488852Y-81867016D01*
X106538457Y-81779897D01*
X106545581Y-81768392D01*
X106593653Y-81707333D01*
X106637600Y-81676385D01*
X106668940Y-81679076D01*
X106679357Y-81712772D01*
X106692387Y-81740154D01*
X106722639Y-81734965D01*
X106998296Y-81641109D01*
X107245428Y-81581748D01*
X107400732Y-81559465D01*
X107591780Y-81545256D01*
X107805519Y-81539112D01*
X108028894Y-81541023D01*
G37*
D12*
%TO.C,R7*%
X107326359Y-86930000D02*
X107633641Y-86930000D01*
X107326359Y-87690000D02*
X107633641Y-87690000D01*
%TO.C,U1*%
X107990000Y-92590000D02*
X108640000Y-92590000D01*
X107990000Y-93240000D02*
X107990000Y-92590000D01*
X107990000Y-99810000D02*
X107990000Y-99160000D01*
X108640000Y-99810000D02*
X107990000Y-99810000D01*
X114560000Y-92590000D02*
X115210000Y-92590000D01*
X115210000Y-92590000D02*
X115210000Y-93240000D01*
X115210000Y-99160000D02*
X115210000Y-99810000D01*
X115210000Y-99810000D02*
X114560000Y-99810000D01*
X107460000Y-93600000D02*
X107130000Y-93840000D01*
X107130000Y-93360000D01*
X107460000Y-93600000D01*
G36*
X107460000Y-93600000D02*
G01*
X107130000Y-93840000D01*
X107130000Y-93360000D01*
X107460000Y-93600000D01*
G37*
%TD*%
M02*
